HIERARCHY
ROOT SimulationBone
{
	OFFSET 0.000000 0.000000 0.000000
	CHANNELS 6 Xposition Yposition Zposition Zrotation Yrotation Xrotation 
	JOINT Hips
	{
		OFFSET 0.000000 0.000000 0.000000
		CHANNELS 6 Xposition Yposition Zposition Zrotation Yrotation Xrotation 
		JOINT LeftUpLeg
		{
			OFFSET 0.103456 1.857840 10.548509
			CHANNELS 3 Zrotation Yrotation Xrotation
			JOINT LeftLeg
			{
				OFFSET 43.500000 -0.000042 0.000010
				CHANNELS 3 Zrotation Yrotation Xrotation
				JOINT LeftFoot
				{
					OFFSET 42.372192 0.000019 0.000000
					CHANNELS 3 Zrotation Yrotation Xrotation
					JOINT LeftToe
					{
						OFFSET 17.299999 -0.000000 0.000003
						CHANNELS 3 Zrotation Yrotation Xrotation
						End Site
						{
							OFFSET 0.000000 0.000000 0.000000
						}
					}
				}
			}
		}
		JOINT RightUpLeg
		{
			OFFSET 0.103456 1.857823 -10.548508
			CHANNELS 3 Zrotation Yrotation Xrotation
			JOINT RightLeg
			{
				OFFSET 43.500042 -0.000027 0.000004
				CHANNELS 3 Zrotation Yrotation Xrotation
				JOINT RightFoot
				{
					OFFSET 42.372261 0.000000 0.000010
					CHANNELS 3 Zrotation Yrotation Xrotation
					JOINT RightToe
					{
						OFFSET 17.299994 -0.000006 0.000017
						CHANNELS 3 Zrotation Yrotation Xrotation
						End Site
						{
							OFFSET 0.000000 0.000000 0.000000
						}
					}
				}
			}
		}
		JOINT Spine
		{
			OFFSET 6.901967 -2.603732 -0.000003
			CHANNELS 3 Zrotation Yrotation Xrotation
			JOINT Spine1
			{
				OFFSET 12.588099 0.000010 0.000008
				CHANNELS 3 Zrotation Yrotation Xrotation
				JOINT Spine2
				{
					OFFSET 12.343201 -0.000018 -0.000005
					CHANNELS 3 Zrotation Yrotation Xrotation
					JOINT Neck
					{
						OFFSET 25.832890 0.000023 0.000007
						CHANNELS 3 Zrotation Yrotation Xrotation
						JOINT Head
						{
							OFFSET 11.766609 -0.000008 -0.000006
							CHANNELS 3 Zrotation Yrotation Xrotation
							End Site
							{
								OFFSET 0.000000 0.000000 0.000000
							}
						}
					}
					JOINT LeftShoulder
					{
						OFFSET 19.745909 -1.480347 6.000101
						CHANNELS 3 Zrotation Yrotation Xrotation
						JOINT LeftArm
						{
							OFFSET 11.284133 0.000018 -0.000020
							CHANNELS 3 Zrotation Yrotation Xrotation
							JOINT LeftForeArm
							{
								OFFSET 33.000050 -0.000013 0.000019
								CHANNELS 3 Zrotation Yrotation Xrotation
								JOINT LeftHand
								{
									OFFSET 25.200005 0.000032 0.000011
									CHANNELS 3 Zrotation Yrotation Xrotation
									End Site
									{
										OFFSET 0.000000 0.000000 0.000000
									}
								}
							}
						}
					}
					JOINT RightShoulder
					{
						OFFSET 19.746101 -1.480358 -6.000078
						CHANNELS 3 Zrotation Yrotation Xrotation
						JOINT RightArm
						{
							OFFSET 11.284140 -0.000000 -0.000001
							CHANNELS 3 Zrotation Yrotation Xrotation
							JOINT RightForeArm
							{
								OFFSET 33.000103 0.000016 -0.000001
								CHANNELS 3 Zrotation Yrotation Xrotation
								JOINT RightHand
								{
									OFFSET 25.199762 0.000123 0.000432
									CHANNELS 3 Zrotation Yrotation Xrotation
									End Site
									{
										OFFSET 0.000000 0.000000 0.000000
									}
								}
							}
						}
					}
				}
			}
		}
	}
}
MOTION
Frames: 6
Frame Time: 0.016667
112.977706 0.000000 -503.377170 0.000000 158.417170 0.000000 -0.271556 87.853592 2.159532 94.702819 4.249258 179.174208 156.124191 -0.772003 175.954238 -7.659060 -2.181154 -9.390671 65.109255 5.350692 -4.226506 21.454551 0.003092 -0.000000 -165.825027 -0.712706 -173.509003 -13.846819 6.132101 4.639739 87.703972 -3.018500 1.980068 21.454560 -0.003111 -0.000017 8.903168 0.131324 1.542247 7.795645 0.158583 3.089792 7.478066 0.177362 3.088781 5.680060 0.941381 -1.278656 -18.500583 7.194154 -3.940783 -163.795216 -74.905007 -18.062873 -2.109709 64.281852 21.147909 -25.902586 -14.955027 1.153705 12.431418 -2.036385 26.664900 -155.345916 75.095371 26.663825 -16.161658 -53.185308 -16.774056 -39.051742 17.356149 -1.614222 7.877458 4.059031 -3.754424 
111.483614 0.000000 -504.069806 0.000000 158.795542 0.000000 -0.332713 87.539109 2.183613 94.635513 4.350810 179.377991 155.808699 -0.268186 176.153664 -6.659943 -1.888018 -9.663712 67.098572 5.677936 -3.952924 21.454551 0.003092 0.000001 -164.811840 -1.008637 -172.983195 -13.977824 5.998990 4.586379 88.142940 -2.953829 2.183289 21.454560 -0.003108 -0.000017 8.907630 0.114972 1.503305 7.804138 0.128418 3.010892 7.486524 0.146723 3.010067 5.607339 0.955343 -1.271312 -18.371783 7.339298 -3.976197 -163.656375 -74.848159 -18.205463 -1.837399 64.135545 21.277460 -25.991575 -14.925479 1.153316 12.216523 -1.946899 28.245368 -155.899264 75.203394 26.096012 -16.508120 -53.010397 -16.069809 -39.162977 17.368547 -1.617938 7.942649 3.983579 -3.526013 
109.976875 0.000000 -504.748258 0.000000 159.190155 0.000000 -0.394544 87.211143 2.195864 94.647584 4.290254 179.824586 155.613388 0.379195 175.465183 -6.942905 -1.678571 -9.549077 67.759861 5.924912 -3.020443 21.454553 0.003092 0.000002 -163.924772 -1.194903 -172.257466 -14.565469 5.832180 4.546841 88.623309 -2.885855 2.473275 21.454560 -0.003104 -0.000018 8.925233 0.065182 1.419864 7.838097 0.034140 2.840834 7.520419 0.051426 2.840583 5.492791 0.958507 -1.323228 -18.211588 7.587720 -4.110441 -163.660607 -74.767454 -18.201806 -1.961404 63.787422 21.256591 -26.041280 -14.843039 1.148834 11.873676 -1.725580 29.357617 -156.140021 75.135724 25.851697 -16.850100 -52.862858 -15.413858 -39.257823 17.399854 -1.622448 7.960045 3.792147 -3.591238 
108.458382 0.000000 -505.412322 0.000000 159.609366 0.000000 -0.451298 86.883946 2.199263 94.704939 4.061441 -179.591276 155.450381 1.057199 174.448272 -8.450721 -1.721375 -9.150411 66.585746 6.279302 -1.199498 21.454553 0.003092 0.000002 -163.193513 -1.237721 -171.343272 -15.596900 5.629788 4.454622 89.069210 -2.764766 2.875247 21.454558 -0.003101 -0.000018 8.954573 -0.026686 1.329469 7.894677 -0.143922 2.653986 7.576947 -0.127758 2.654812 5.335664 0.933698 -1.465653 -18.096755 7.929841 -4.380032 -163.892284 -74.696528 -17.965191 -2.635755 63.282871 21.002334 -25.975140 -14.743851 1.141333 11.463520 -1.433661 29.925886 -155.999096 74.938043 25.999893 -17.006814 -52.869401 -14.814332 -39.413192 17.485871 -1.632173 7.892853 3.588629 -3.999310 
106.929551 0.000000 -506.062158 0.000000 160.061209 0.000000 -0.487051 86.600540 2.193421 94.793653 3.725462 -179.087589 155.218959 1.670897 172.844726 -10.731225 -1.771350 -8.268028 64.995464 6.591072 1.287166 21.454553 0.003092 0.000001 -162.561385 -1.188796 -170.386883 -16.857399 5.312882 4.332553 89.214386 -2.608944 3.337511 21.454558 -0.003102 -0.000018 8.990218 -0.154039 1.274507 7.963268 -0.395332 2.535386 7.645508 -0.379879 2.537730 5.173248 0.888341 -1.680489 -18.040903 8.309988 -4.745943 -164.182488 -74.676483 -17.668192 -3.685738 62.769430 20.508277 -25.923424 -14.688153 1.137016 11.094893 -1.101929 30.166817 -155.749034 74.717020 26.260197 -16.810297 -53.063656 -14.419755 -39.664530 17.616373 -1.647247 7.784770 3.479732 -4.571024 
105.391706 0.000000 -506.696181 0.000000 160.551029 0.000000 -0.479912 86.396174 2.176848 94.914674 3.349106 -178.863214 154.872036 2.153935 170.514200 -13.275650 -1.543041 -6.870380 64.351416 6.628650 3.981517 21.454552 0.003092 0.000000 -161.970801 -1.092324 -169.535992 -18.165391 4.824474 4.213398 88.816785 -2.439722 3.792758 21.454559 -0.003108 -0.000018 9.027319 -0.308201 1.285868 8.034095 -0.704845 2.547276 7.716323 -0.689316 2.551487 5.044431 0.835553 -1.932651 -18.031669 8.669268 -5.147797 -164.336531 -74.722834 -17.510093 -4.883483 62.370377 19.786434 -26.036582 -14.721682 1.141080 10.863811 -0.774025 30.317216 -155.668473 74.568519 26.345919 -16.163714 -53.440838 -14.382590 -40.002859 17.768856 -1.666044 7.682788 3.538837 -5.089992 
